<svg xmlns="http://www.w3.org/2000/svg" xmlns:xlink="http://www.w3.org/1999/xlink" viewBox="0 0 433.89 136.62"><defs><style>.cls-1{isolation:isolate;}.cls-2{fill:#fff;}.cls-3{fill:url(#linear-gradient);}.cls-4{fill:url(#radial-gradient);}.cls-5{mix-blend-mode:screen;fill:url(#linear-gradient-2);}</style><linearGradient id="linear-gradient" x1="180.17" y1="68.31" x2="318.33" y2="68.31" gradientUnits="userSpaceOnUse"><stop offset="0.21" stop-color="#85fc6e"/><stop offset="1" stop-color="#0ad418"/></linearGradient><radialGradient id="radial-gradient" cx="246.16" cy="68.22" fx="214.28252807974178" fy="82.11973087974158" r="38.9" gradientUnits="userSpaceOnUse"><stop offset="0" stop-color="#8cff00"/><stop offset="0.24" stop-color="#7ff400"/><stop offset="0.68" stop-color="#5dd600"/><stop offset="1" stop-color="#3fbd00"/></radialGradient><linearGradient id="linear-gradient-2" x1="245.8" y1="32.18" x2="245.8" y2="67.12" gradientUnits="userSpaceOnUse"><stop offset="0" stop-color="#fff"/><stop offset="0.17" stop-color="#ccc"/><stop offset="0.47" stop-color="#767676"/><stop offset="0.72" stop-color="#363636"/><stop offset="0.91" stop-color="#0f0f0f"/><stop offset="1"/></linearGradient></defs><title>web-1</title><g class="cls-1"><g id="Layer_2" data-name="Layer 2"><g id="Layer_1-2" data-name="Layer 1"><path class="cls-2" d="M226.26,3.66a65.84,65.84,0,0,0-42.21,41.39,73,73,0,0,0-3.88,23.74A64.73,64.73,0,0,0,198,114.15c.27.28.52.58.8.86.12.13.23.26.35.38s.17.16.25.25c17.35,17.83,44.4,26.39,72.8,17.32a65,65,0,0,0,11.29-4.84,63,63,0,0,0,31.15-36.38,71.8,71.8,0,0,0,3.64-22.33C319.05,23.85,274.61-11.78,226.26,3.66Z"/><path class="cls-2" d="M418.85,16.35l-.41,101.77c-.05,11.74,3.9,4,5.57-.18a131,131,0,0,0,9.87-50.64,131,131,0,0,0-9.46-50.73C422.78,12.4,418.91,2,418.85,16.35Z"/><path class="cls-2" d="M334.27,108.92c0,16.93-25.18,17.71-25.18,17.71l63,.24c4.57,0,11.27.24,13.37-.77,3.69-1.78,3.71-4.66,1.93-6.83L334.49,55c-.05,12.25-.15,29.9-.17,40.31C334.32,97,334.27,98.86,334.27,108.92Z"/><path class="cls-2" d="M313.28,4.55a35,35,0,0,1,25,12.56c2.7,3.31,46.65,56.6,46.65,56.6a3.83,3.83,0,0,0,6.79-2.42L392,15.07a9.19,9.19,0,0,0-7.3-9,58.87,58.87,0,0,0-12-1.29Z"/><path class="cls-3" d="M226.26,3.66a65.84,65.84,0,0,0-42.21,41.39,73,73,0,0,0-3.88,23.74A64.73,64.73,0,0,0,198,114.15c.27.28.52.58.8.86.12.13.23.26.35.38s.17.16.25.25c17.35,17.83,44.4,26.39,72.8,17.32a65,65,0,0,0,11.29-4.84,63,63,0,0,0,31.15-36.38,71.8,71.8,0,0,0,3.64-22.33C319.05,23.85,274.61-11.78,226.26,3.66ZM267.19,130A69.88,69.88,0,0,1,245,133.4a63.46,63.46,0,0,1-44-19c-17.5-17.64-23.11-42.73-15-67.12A61.36,61.36,0,0,1,225.22,8.37a69.66,69.66,0,0,1,21.27-3.45,63.46,63.46,0,0,1,44.92,19c17.5,17.64,23.11,42.74,15,67.13A61.39,61.39,0,0,1,267.19,130Z"/><path class="cls-4" d="M283.66,68.13A37.86,37.86,0,1,1,245.8,30.27,37.86,37.86,0,0,1,283.66,68.13Z"/><ellipse class="cls-5" cx="245.8" cy="52.85" rx="27.95" ry="21.45"/><path class="cls-2" d="M165,88.62l0-11c.05-10.85-2.17-19.17-6.59-24.71-4.57-5.7-11-8.6-19.22-8.63-7.8,0-14,3-18.41,9s-6.55,14.16-6.59,25l-.07,16.37c0,10,2.06,17.81,6.24,23.11s10.66,8.24,18.86,8.27c7.44,0,13.2-2.09,17.64-6.49,4.24-4.39,6.77-10.83,7.51-19.12l0-.54-13.26-.06-.05.44c-.52,4.37-1.7,7.75-3.47,10a9.13,9.13,0,0,1-7.48,3.17c-3.91,0-6.59-1.53-8.44-4.77S129,100.32,129,93l0-4.5ZM150.71,72.94l0,4.48-21.6-.08V75.17c0-6.63,1-11.25,2.83-14.14s4.57-4.2,8.49-4.18A8.56,8.56,0,0,1,148,61.1C149.83,63.78,150.73,67.76,150.71,72.94Z"/><path class="cls-2" d="M80.43,14.43a3.29,3.29,0,0,0,3.3-3.28l0-5.62a3.31,3.31,0,0,0-3.28-3.3L53.14,2.12a3.28,3.28,0,0,0-3.3,3.27l0,5.62a3.31,3.31,0,0,0,3.28,3.31l4.91,0a1.64,1.64,0,0,1,1.69,2.12L42.09,93a3.67,3.67,0,0,1-.13.47c0-.12-.08-.27-.13-.47L25.05,16.33a1.66,1.66,0,0,1,1.71-2.12l5.1,0A3.29,3.29,0,0,0,35.16,11l0-5.63A3.29,3.29,0,0,0,31.91,2L3.32,1.92A3.29,3.29,0,0,0,0,5.19l0,5.62a3.28,3.28,0,0,0,3.28,3.3H5.34a3.3,3.3,0,0,1,3,2.35l21.46,85.8,5.79,23.19,12,.05L73.79,16.74a3.24,3.24,0,0,1,3-2.33Z"/><rect class="cls-2" x="84.09" y="20.11" width="12.2" height="14.17" rx="3.29" transform="translate(62.63 117.28) rotate(-89.77)"/><path class="cls-2" d="M102.34,114.76H99.75a2.31,2.31,0,0,1-2.29-2.31l.25-61.5a3.29,3.29,0,0,0-3.28-3.31l-16.3-.06a3.29,3.29,0,0,0-3.3,3.27l0,5.09a3.3,3.3,0,0,0,3.28,3.31h2.59A2.3,2.3,0,0,1,83,61.55l-.21,50.83a2.3,2.3,0,0,1-2.31,2.29s-5.88,1.45-5.89,3.26l0,8.38,31.05.13,0-8.38A3.28,3.28,0,0,0,102.34,114.76Z"/></g></g></g></svg>